HIERARCHY
ROOT hip
{
  OFFSET 0 0 0
  CHANNELS 6 Xposition Yposition Zposition Zrotation Yrotation Xrotation
  JOINT abdomen
  {
    OFFSET 0 20.6881 -0.73152
    CHANNELS 3 Zrotation Xrotation Yrotation
    JOINT chest
    {
      OFFSET 0 11.7043 -0.48768
      CHANNELS 3 Zrotation Xrotation Yrotation
      JOINT neck
      {
        OFFSET 0 22.1894 -2.19456
        CHANNELS 3 Zrotation Xrotation Yrotation
        JOINT head
        {
          OFFSET -0.24384 7.07133 1.2192
          CHANNELS 3 Zrotation Xrotation Yrotation
          JOINT leftEye
          {
            OFFSET 4.14528 8.04674 8.04672
            CHANNELS 3 Zrotation Xrotation Yrotation
            End Site
            {
              OFFSET 1 0 0
            }
          }
          JOINT rightEye
          {
            OFFSET -3.6576 8.04674 8.04672
            CHANNELS 3 Zrotation Xrotation Yrotation
            End Site
            {
              OFFSET 1 0 0
            }
          }
        }
      }
      JOINT rCollar
      {
        OFFSET -2.68224 19.2634 -4.8768
        CHANNELS 3 Zrotation Xrotation Yrotation
        JOINT rShldr
        {
          OFFSET -8.77824 -1.95073 1.46304
          CHANNELS 3 Zrotation Xrotation Yrotation
          JOINT rForeArm
          {
            OFFSET -28.1742 -1.7115 0.48768
            CHANNELS 3 Zrotation Xrotation Yrotation
            JOINT rHand
            {
              OFFSET -22.5879 0.773209 7.07136
              CHANNELS 3 Zrotation Xrotation Yrotation
              JOINT rThumb1
              {
                OFFSET -1.2192 -0.487915 3.41376
                CHANNELS 3 Zrotation Xrotation Yrotation
                JOINT rThumb2
                {
                  OFFSET -3.37035 -0.52449 3.41376
                  CHANNELS 3 Zrotation Xrotation Yrotation
                  End Site
                  {
                    OFFSET -1.78271 -1.18214 1.43049
                  }
                }
              }
              JOINT rIndex1
              {
                OFFSET -7.75947 0.938293 5.60832
                CHANNELS 3 Zrotation Xrotation Yrotation
                JOINT rIndex2
                {
                  OFFSET -2.54057 -0.884171 1.56538
                  CHANNELS 3 Zrotation Xrotation Yrotation
                  End Site
                  {
                    OFFSET -1.62519 -0.234802 1.16502
                  }
                }
              }
              JOINT rMid1
              {
                OFFSET -8.24714 1.18213 3.41376
                CHANNELS 3 Zrotation Xrotation Yrotation
                JOINT rMid2
                {
                  OFFSET -3.10165 -0.590103 1.0647
                  CHANNELS 3 Zrotation Xrotation Yrotation
                  End Site
                  {
                    OFFSET -2.48547 -0.328903 0.83742
                  }
                }
              }
              JOINT rRing1
              {
                OFFSET -8.82822 0.546677 1.51678
                CHANNELS 3 Zrotation Xrotation Yrotation
                JOINT rRing2
                {
                  OFFSET -2.60934 -0.819778 -0.0198488
                  CHANNELS 3 Zrotation Xrotation Yrotation
                  End Site
                  {
                    OFFSET -2.33842 -0.294052 0.168128
                  }
                }
              }
              JOINT rPinky1
              {
                OFFSET -8.27202 -0.0477905 -0.4584
                CHANNELS 3 Zrotation Xrotation Yrotation
                JOINT rPinky2
                {
                  OFFSET -1.82734 -0.647385 -0.700984
                  CHANNELS 3 Zrotation Xrotation Yrotation
                  End Site
                  {
                    OFFSET -1.69225 -0.51767 -0.607171
                  }
                }
              }
            }
          }
        }
      }
      JOINT lCollar
      {
        OFFSET 2.68224 19.2634 -4.8768
        CHANNELS 3 Zrotation Xrotation Yrotation
        JOINT lShldr
        {
          OFFSET 8.77824 -1.95073 1.46304
          CHANNELS 3 Zrotation Xrotation Yrotation
          JOINT lForeArm
          {
            OFFSET 28.1742 -1.7115 0.48768
            CHANNELS 3 Zrotation Xrotation Yrotation
            JOINT lHand
            {
              OFFSET 22.5879 0.773209 7.07136
              CHANNELS 3 Zrotation Xrotation Yrotation
              JOINT lThumb1
              {
                OFFSET 1.2192 -0.487915 3.41376
                CHANNELS 3 Zrotation Xrotation Yrotation
                JOINT lThumb2
                {
                  OFFSET 3.37035 -0.52449 3.41376
                  CHANNELS 3 Zrotation Xrotation Yrotation
                  End Site
                  {
                    OFFSET 1.78271 -1.18214 1.43049
                  }
                }
              }
              JOINT lIndex1
              {
                OFFSET 7.75947 0.938293 5.60832
                CHANNELS 3 Zrotation Xrotation Yrotation
                JOINT lIndex2
                {
                  OFFSET 2.54057 -0.884171 1.56538
                  CHANNELS 3 Zrotation Xrotation Yrotation
                  End Site
                  {
                    OFFSET 1.62519 -0.234802 1.16502
                  }
                }
              }
              JOINT lMid1
              {
                OFFSET 8.24714 1.18213 3.41376
                CHANNELS 3 Zrotation Xrotation Yrotation
                JOINT lMid2
                {
                  OFFSET 3.10165 -0.590103 1.0647
                  CHANNELS 3 Zrotation Xrotation Yrotation
                  End Site
                  {
                    OFFSET 2.48547 -0.328903 0.83742
                  }
                }
              }
              JOINT lRing1
              {
                OFFSET 8.82822 0.546677 1.51678
                CHANNELS 3 Zrotation Xrotation Yrotation
                JOINT lRing2
                {
                  OFFSET 2.60934 -0.819778 -0.0198488
                  CHANNELS 3 Zrotation Xrotation Yrotation
                  End Site
                  {
                    OFFSET 2.33842 -0.294052 0.168128
                  }
                }
              }
              JOINT lPinky1
              {
                OFFSET 8.27202 -0.0477905 -0.4584
                CHANNELS 3 Zrotation Xrotation Yrotation
                JOINT lPinky2
                {
                  OFFSET 1.82734 -0.647385 -0.700984
                  CHANNELS 3 Zrotation Xrotation Yrotation
                  End Site
                  {
                    OFFSET 1.69225 -0.51767 -0.607171
                  }
                }
              }
            }
          }
        }
      }
    }
  }
  JOINT rButtock
  {
    OFFSET -8.77824 4.35084 1.2192
    CHANNELS 3 Zrotation Xrotation Yrotation
    JOINT rThigh
    {
      OFFSET 0 -1.70687 -2.19456
      CHANNELS 3 Zrotation Xrotation Yrotation
      JOINT rShin
      {
        OFFSET 0 -36.8199 0.73152
        CHANNELS 3 Zrotation Xrotation Yrotation
        JOINT rFoot
        {
          OFFSET 0.73152 -45.1104 -5.12064
          CHANNELS 3 Zrotation Xrotation Yrotation
          End Site
          {
            OFFSET -1.1221 -3.69964 12.103
          }
        }
      }
    }
  }
  JOINT lButtock
  {
    OFFSET 8.77824 4.35084 1.2192
    CHANNELS 3 Zrotation Xrotation Yrotation
    JOINT lThigh
    {
      OFFSET 0 -1.70687 -2.19456
      CHANNELS 3 Zrotation Xrotation Yrotation
      JOINT lShin
      {
        OFFSET 0 -36.8199 0.73152
        CHANNELS 3 Zrotation Xrotation Yrotation
        JOINT lFoot
        {
          OFFSET -0.73152 -45.1104 -5.12064
          CHANNELS 3 Zrotation Xrotation Yrotation
          End Site
          {
            OFFSET 1.1221 -3.69964 12.103
          }
        }
      }
    }
  }
}
MOTION
Frames:	5
Frame Time:	0.03333
-49.1572 56.008500000000005 32.785199999999996 7.957564 -21.68358 -3.141977 -15.872605 8.231288 -80.281171 4.849666 4.226201 90.983526 11.396683 25.977651 117.355907 -24.5626 30.361522 -150.032214 7.795541 -0.566034 -8.293214 -10.462948 2.270169 -24.42075 -78.688632 -80.66845 -106.188051 -129.925724 -25.007659 -161.434398 20.709412 48.188738 -83.531377 164.392145 -19.89161 145.588407 11.405112 -15.977587 -8.35951 26.020003 -19.87449 -0.189587 -151.050099 0.460535 115.975645 -32.149029 42.670824 9.364881 -161.956444 -60.77854 159.125054 -132.77075 37.960184 133.288513 -128.30581 33.977778 157.183585 4.178914 -67.785728 -37.611425 -6.619869 32.190445 0.437239 -118.278027 25.659577 -175.245098 20.795461 43.380838 -22.432802 -75.592884 31.904207 -20.367035 9.126228 -27.690526 -92.428646 1.820758 -23.018142 4.082778 -2.441473 -3.6843 5.614721 -136.685661 -77.250767 -54.000203 149.414404 2.864142 -113.519259 173.790467 -8.280009 -113.790492 -7.382553 -19.179771 -6.954224 171.074706 -14.493333 -151.357873 100.194569 -60.486749 107.76518 -156.032182 78.751212 120.693448 154.509252 11.318404 128.064096 0.781355 27.275391 3.059512 72.051932 23.580559 38.7756 -131.239604 -13.742264 101.853478 49.925947 -48.18781 -68.384283 102.145783 -67.408213 -12.178412 -6.993703 1.300816 -2.025924 15.818962 0.402711 89.342953 48.713514 6.007512 -97.681061 106.590193 31.890486 -10.716476
-49.3564 56.3001 33.669 8.11503 -21.852466 -2.886845 -15.918865 8.577191 -79.792553 5.872812 3.979582 89.42952 -4.416981 13.058973 -10.271061 3.292248 -21.63422 -25.020359 -1.659338 0.127752 -8.804383 -8.254688 1.956293 -26.623295 -145.171353 -60.053536 -176.730193 -139.002543 -25.432359 -150.686836 -179.377729 -69.911424 -146.792689 -6.675298 37.115817 2.700821 -137.146133 27.677487 85.236562 -127.518669 15.030446 60.107103 -4.12454 -6.59515 -0.164537 -45.374729 45.657663 37.914013 -28.655419 59.567325 24.37217 -168.719854 9.893641 142.124079 7.08132 -9.682543 5.895392 -36.475874 -69.653458 -40.011231 -95.327447 -46.5567 -72.688692 28.653074 15.994024 -27.633882 150.301218 20.510691 -152.452881 -172.072457 21.030187 -105.111258 149.480491 -70.646621 -73.432939 174.007211 -0.311508 -142.71742 4.707468 6.715204 5.175241 130.546264 -36.560676 -104.544093 -39.565638 -60.155275 -8.300237 18.859151 53.632557 -10.087121 141.558148 25.134829 -123.037827 25.978174 49.304689 -32.482549 6.798986 45.203927 -4.875083 -8.78248 -13.225361 -14.427247 94.10503 -37.890258 85.576682 73.594032 -44.271222 78.153453 155.6107 71.387571 28.223366 160.384515 1.141515 96.141712 75.737297 2.2779 96.568143 88.091555 18.306931 -160.086583 173.362853 75.708176 -1.140394 -125.345969 68.404586 127.9711 -4.030779 -52.242946 -122.486285 90.460694 -38.668375 0.717144
-49.6276 56.594100000000005 34.3617 7.815981 -21.927302 -2.040033 -20.1428 9.577994 73.259186 -3.468248 -10.923011 -63.912496 5.057834 30.509371 153.889426 -9.725162 39.870523 173.098097 -7.181998 0.198244 -3.158123 -1.44761 0.372326 -28.846352 2.422505 17.461092 -0.029024 76.657872 -41.648211 56.07409 55.633865 -14.83455 31.322381 -148.194228 71.42696 127.853773 -7.884034 11.21929 -4.047144 -14.342894 -3.444373 31.801693 -84.06437 40.537821 65.672775 172.110929 -45.420222 110.007923 -162.059347 -31.420599 151.867202 -58.382989 68.29024 56.023222 -130.866133 -68.78951 -158.764926 3.941162 16.260635 15.157273 -9.675539 28.758657 5.120441 21.154632 -20.037884 14.67754 157.084287 -8.044062 -160.547533 -101.270111 -28.757175 -145.296501 7.442844 -30.392196 -91.311722 3.550735 -24.093143 4.214828 35.005912 34.387303 -11.15533 139.533514 -32.82758 -85.942771 152.417796 -8.758093 -115.342689 173.303277 -13.742883 -112.280647 20.958537 28.050825 -21.017513 4.482186 49.792727 -2.781804 4.865354 20.700557 1.735042 -44.353786 -69.234564 -27.673745 135.397351 -8.566006 122.879701 78.814904 -49.558676 76.356709 71.057528 23.447622 40.233443 -131.54661 -12.142873 93.029629 61.961786 -46.889404 -12.94481 -114.685835 -64.648275 138.468417 -159.091194 72.937365 -23.546304 -139.478963 69.525158 -170.004406 -51.941453 -27.286754 -141.19933 -99.224034 52.669133 -5.840651
-49.928200000000004 56.858399999999996 34.9111 7.711538 -22.219519 -1.354505 -15.26836 8.285032 -125.207129 1.751043 7.011614 133.86997 -11.692147 27.59566 -104.057315 35.277447 15.654502 66.346564 -11.078083 0.342878 -3.534562 1.544693 -0.353123 -25.752125 3.14419 10.091114 -1.406023 -123.241706 15.77036 136.856261 6.116133 4.446454 -70.282752 158.027209 -32.492497 139.06098 66.50996 -52.720492 18.437354 -134.411302 -29.455789 121.651317 -16.356901 17.363279 11.080578 -165.528167 -5.072872 111.461589 -149.355453 22.557102 141.018593 -169.614139 -24.899841 149.9073 1.658583 20.626889 16.913361 21.048494 76.342518 -20.627612 -21.081821 -8.477126 -3.681536 -90.12764 -46.138758 -112.32526 -1.14509 -9.19609 0.131815 12.138279 -50.281263 87.642549 139.239194 61.73028 118.343155 3.007123 -30.75494 4.951297 4.156883 9.555633 3.953163 -30.255654 -30.992878 3.661202 44.354802 33.291083 -32.923957 -22.539796 -1.785298 1.422271 -63.440378 -69.551497 -37.779343 5.853161 -6.879947 2.464529 137.720024 -40.028962 153.552358 131.658021 -40.182806 158.685311 149.205204 21.44755 134.533337 160.23182 52.143521 149.030913 88.216286 39.389389 49.330974 -152.445612 -0.130091 90.20596 70.419117 -19.802305 -176.528539 28.164229 61.062878 52.913164 -25.752134 2.641144 -10.928654 34.656742 5.592711 101.792287 50.896654 8.502726 -171.475812 -123.761268 73.425213 -142.567756
-50.2046 57.0901 35.4086 7.713917 -22.501467 -0.850603 -15.256726 12.155545 -36.601514 9.449071 -4.781688 45.973658 -10.441965 17.628315 -40.541636 23.675814 -16.707818 10.458381 -14.878981 0.616065 -4.715355 1.458605 -0.282344 -21.90955 -151.528089 -45.947237 175.019733 150.120671 55.485564 -131.616307 -158.485539 13.688167 106.665496 139.070523 -53.740568 123.098145 -176.556223 -20.467057 95.453588 -146.734704 11.521419 102.48506 41.022395 -57.4748 3.061936 -129.290675 18.002004 97.669367 -6.351313 24.494904 2.422147 -166.50419 -6.167786 139.281417 -135.128676 16.487316 166.854495 10.341848 -65.4436 -23.297448 -38.016914 -37.697274 -22.770523 28.39374 26.04048 -4.572897 123.083459 57.047004 -125.97687 -67.841265 -3.756622 -74.653889 4.875602 -26.840943 -92.636245 6.796485 -23.02408 5.213559 165.597554 -8.267774 -95.456207 113.437332 17.099487 -51.772256 3.95213 1.748453 -5.835096 26.696093 53.927651 -21.11939 -4.981229 -10.001694 -5.743436 43.218747 69.83754 -34.669087 8.074284 -19.637504 13.762289 -23.237597 -19.42912 -4.650767 154.769807 40.6609 138.28914 154.899636 48.985722 151.488303 -64.526491 39.276018 -50.53512 97.433078 -36.205205 153.001622 68.366071 -30.366817 -8.645896 1.079684 -23.721729 -87.992036 23.995213 9.197412 25.982525 -14.658779 -0.956882 -89.521442 -55.751814 14.478877 -70.771526 4.743897 32.539652 176.079146
